HIERARCHY
ROOT Pelvis
{
	OFFSET 0.000000 0.000000 0.000000
	CHANNELS 6 Xposition Yposition Zposition Xrotation Yrotation Zrotation
	JOINT LeftUpLeg_virtual
	{
		OFFSET 0.000000 0.000000 0.000000
		CHANNELS 3 Xrotation Yrotation Zrotation
		JOINT LeftUpLeg
		{
			OFFSET 18.735201 -5.666702 -4.541200
			CHANNELS 3 Xrotation Yrotation Zrotation
			JOINT LeftLeg
			{
				OFFSET -0.021200 -31.938179 0.493100
				CHANNELS 3 Xrotation Yrotation Zrotation
				JOINT LeftFoot
				{
					OFFSET 0.021200 -31.938179 -4.336299
					CHANNELS 3 Xrotation Yrotation Zrotation
					JOINT LeftToeBase
					{
						OFFSET 0.943001 -26.722000 15.023500
						CHANNELS 3 Xrotation Yrotation Zrotation
						End Site
						{
							OFFSET 0 0 0
						}
					}
				}
			}
		}
	}
	JOINT RightUpLeg_virtual
	{
		OFFSET 0.000000 0.000000 0.000000
		CHANNELS 3 Xrotation Yrotation Zrotation
		JOINT RightUpLeg
		{
			OFFSET -18.735201 -5.666702 -4.541200
			CHANNELS 3 Xrotation Yrotation Zrotation
			JOINT RightLeg
			{
				OFFSET 0.018946 -31.938133 0.493100
				CHANNELS 3 Xrotation Yrotation Zrotation
				JOINT RightFoot
				{
					OFFSET -0.018946 -31.938126 -4.336299
					CHANNELS 3 Xrotation Yrotation Zrotation
					JOINT RightToeBase
					{
						OFFSET -0.943001 -26.722004 15.023500
						CHANNELS 3 Xrotation Yrotation Zrotation
						End Site
						{
							OFFSET 0 0 0
						}
					}
				}
			}
		}
	}
	JOINT Hips_virtual
	{
		OFFSET 0.000000 0.000000 0.000000
		CHANNELS 3 Xrotation Yrotation Zrotation
		JOINT Hips
		{
			OFFSET -0.000000 -0.000000 -0.000000
			CHANNELS 3 Xrotation Yrotation Zrotation
			JOINT Spine
			{
				OFFSET 0.000000 10.199997 -0.299500
				CHANNELS 3 Xrotation Yrotation Zrotation
				JOINT Spine1
				{
					OFFSET 0.000000 11.900002 -1.516600
					CHANNELS 3 Xrotation Yrotation Zrotation
					JOINT Spine2
					{
						OFFSET 0.000000 13.600006 -2.842500
						CHANNELS 3 Xrotation Yrotation Zrotation
						JOINT Neck_virtual
						{
							OFFSET 0.000000 0.000000 0.000000
							CHANNELS 3 Xrotation Yrotation Zrotation
							JOINT Neck
							{
								OFFSET 0.000000 9.624100 -2.890100
								CHANNELS 3 Xrotation Yrotation Zrotation
								JOINT Head
								{
									OFFSET 0.000000 14.068802 -1.351900
									CHANNELS 3 Xrotation Yrotation Zrotation
									End Site
									{
										OFFSET 0 0 0
									}
								}
							}
						}
						JOINT LeftShoulder_virtual
						{
							OFFSET 0.000000 0.000000 0.000000
							CHANNELS 3 Xrotation Yrotation Zrotation
							JOINT LeftShoulder
							{
								OFFSET 15.263000 10.923401 -0.547700
								CHANNELS 3 Xrotation Yrotation Zrotation
								JOINT LeftArm
								{
									OFFSET 25.438599 -2.830597 -13.032500
									CHANNELS 3 Xrotation Yrotation Zrotation
									JOINT LeftForeArm
									{
										OFFSET 29.960503 0.000000 0.000000
										CHANNELS 3 Xrotation Yrotation Zrotation
										JOINT LeftHand
										{
											OFFSET 27.849251 0.000000 0.000000
											CHANNELS 3 Xrotation Yrotation Zrotation
											End Site
											{
												OFFSET 0 0 0
											}
										}
									}
								}
							}
						}
						JOINT RightShoulder_virtual
						{
							OFFSET 0.000000 0.000000 0.000000
							CHANNELS 3 Xrotation Yrotation Zrotation
							JOINT RightShoulder
							{
								OFFSET -15.263000 10.923401 -0.547700
								CHANNELS 3 Xrotation Yrotation Zrotation
								JOINT RightArm
								{
									OFFSET -25.438599 -2.830597 -13.032500
									CHANNELS 3 Xrotation Yrotation Zrotation
									JOINT RightForeArm
									{
										OFFSET -29.960503 0.000000 0.000000
										CHANNELS 3 Xrotation Yrotation Zrotation
										JOINT RightHand
										{
											OFFSET -27.849251 0.000000 0.000000
											CHANNELS 3 Xrotation Yrotation Zrotation
											End Site
											{
												OFFSET 0 0 0
											}
										}
									}
								}
							}
						}
					}
				}
			}
		}
	}
}
MOTION
Frames: 7
Frame Time: 0.03333333
0.055530 93.013840 1.707671 0.000000 0.000000 0.000000 8.452593 -5.875726 -0.431954 -30.437720 9.951292 15.937570 38.319595 5.519554 -1.850772 -10.207639 6.391602 -4.399768 0.000000 0.000000 0.000000 7.787489 6.452928 9.105955 -18.034030 -5.418150 -3.691425 27.669892 -3.020414 -4.216401 -19.668302 -4.946104 1.965219 0.000000 0.000000 0.000000 -0.123298 0.111115 -0.703588 1.670859 7.973992 -6.457156 5.843721 -0.599275 5.175256 1.198692 -0.116408 3.219642 0.000000 0.000000 0.000000 1.968224 0.089662 2.709365 -0.663718 -0.140313 1.180081 0.000000 0.000000 0.000000 3.351614 -0.198080 2.407618 2.310989 -8.633137 1.397626 -0.601522 5.432633 -61.397916 1.425911 -25.925544 -8.776405 0.000000 0.000000 0.000000 3.790036 -0.850807 3.069375 1.803875 4.245698 16.976357 0.693220 -2.585179 55.277933 1.426771 30.697681 5.289791 0.000000 0.000000 0.000000 
0.041018 93.039482 1.711050 0.000000 0.000000 0.000000 8.427173 -5.960350 -0.456777 -30.454936 9.933176 15.898922 38.305419 5.536320 -1.865351 -10.219056 6.417100 -4.419514 0.000000 0.000000 0.000000 7.843149 6.553298 9.164863 -17.931536 -5.407625 -3.603680 27.560107 -3.034255 -4.264551 -19.774245 -4.937242 1.869966 0.000000 0.000000 0.000000 -0.096239 0.089135 -0.703997 1.695440 8.002770 -6.429473 5.823514 -0.644506 5.147047 1.169437 -0.113748 3.233447 0.000000 0.000000 0.000000 1.982402 0.092767 2.709177 -0.651926 -0.142011 1.169925 0.000000 0.000000 0.000000 3.364032 -0.228436 2.435605 2.346106 -8.750752 1.435991 -0.664440 5.604244 -61.533844 1.401823 -25.813518 -8.903541 0.000000 0.000000 0.000000 3.781941 -0.843139 3.080128 1.839088 4.216030 17.010622 0.579564 -2.831526 55.306951 1.343777 30.453198 5.323737 0.000000 0.000000 0.000000 
0.013029 93.082344 1.711895 0.000000 0.000000 0.000000 8.375224 -6.104382 -0.500370 -30.497375 9.900556 15.833922 38.291615 5.568581 -1.891473 -10.230472 6.464913 -4.453373 0.000000 0.000000 0.000000 7.946068 6.734391 9.266991 -17.742272 -5.387728 -3.448439 27.352283 -3.055263 -4.346052 -19.973529 -4.920469 1.709913 0.000000 0.000000 0.000000 -0.045998 0.048052 -0.700979 1.725480 8.071373 -6.381083 5.780537 -0.724735 5.096761 1.116531 -0.110797 3.257136 0.000000 0.000000 0.000000 2.011635 0.101418 2.709530 -0.629660 -0.144775 1.151289 0.000000 0.000000 0.000000 3.390481 -0.284505 2.485841 2.408094 -8.965899 1.504621 -0.781595 5.931270 -61.770182 1.349730 -25.619587 -9.137358 0.000000 0.000000 0.000000 3.770499 -0.828242 3.099183 1.904018 4.162079 17.067191 0.383941 -3.257526 55.364506 1.200082 30.025061 5.385687 0.000000 0.000000 0.000000 
-0.027385 93.129013 1.701914 0.000000 0.000000 0.000000 8.297514 -6.266257 -0.552300 -30.575171 9.859925 15.763085 38.299350 5.613803 -1.923579 -10.225528 6.529158 -4.491555 0.000000 0.000000 0.000000 8.081768 6.962634 9.386778 -17.493269 -5.360842 -3.259141 27.068683 -3.074139 -4.437948 -20.242659 -4.898161 1.531405 0.000000 0.000000 0.000000 0.022654 -0.002888 -0.688796 1.737035 8.198519 -6.328544 5.712269 -0.822993 5.034919 1.047884 -0.111352 3.285042 0.000000 0.000000 0.000000 2.056926 0.118789 2.711757 -0.599328 -0.147863 1.127160 0.000000 0.000000 0.000000 3.431992 -0.358431 2.548911 2.483383 -9.245194 1.588540 -0.940719 6.386632 -62.049175 1.262134 -25.391411 -9.442935 0.000000 0.000000 0.000000 3.763307 -0.807106 3.122803 1.989597 4.091459 17.128839 0.160688 -3.754881 55.448207 1.032763 29.511991 5.464834 0.000000 0.000000 0.000000 
-0.080089 93.166130 1.675819 0.000000 0.000000 0.000000 8.200357 -6.402578 -0.600614 -30.692200 9.819164 15.708327 38.345423 5.668097 -1.954531 -10.191787 6.601939 -4.522629 0.000000 0.000000 0.000000 8.233791 7.200709 9.497455 -17.215123 -5.330199 -3.071579 26.739550 -3.084282 -4.518527 -20.550586 -4.874409 1.376508 0.000000 0.000000 0.000000 0.107503 -0.045200 -0.662460 1.719014 8.402938 -6.297649 5.619536 -0.920904 4.973166 0.969444 -0.119082 3.312472 0.000000 0.000000 0.000000 2.118389 0.146671 2.717382 -0.563999 -0.150994 1.101156 0.000000 0.000000 0.000000 3.486496 -0.441229 2.614691 2.557266 -9.551635 1.668168 -1.131385 6.938130 -62.310375 1.130089 -25.176846 -9.779902 0.000000 0.000000 0.000000 3.767747 -0.781305 3.147599 2.085851 4.010304 17.182176 -0.029074 -4.210223 55.551998 0.882129 29.017652 5.547511 0.000000 0.000000 0.000000 
-0.145579 93.184341 1.635936 0.000000 0.000000 0.000000 8.097013 -6.482791 -0.634953 -30.840018 9.785408 15.685912 38.434137 5.726181 -1.976874 -10.126962 6.674107 -4.536337 0.000000 0.000000 0.000000 8.388407 7.419372 9.578551 -16.933246 -5.298653 -2.913934 26.398517 -3.085077 -4.574646 -20.863894 -4.854410 1.268217 0.000000 0.000000 0.000000 0.209453 -0.052888 -0.619806 1.680849 8.692960 -6.315754 5.507905 -1.003467 4.920316 0.882772 -0.136040 3.337106 0.000000 0.000000 0.000000 2.194513 0.184357 2.727328 -0.526808 -0.154479 1.076688 0.000000 0.000000 0.000000 3.548172 -0.524518 2.674798 2.617471 -9.852604 1.722780 -1.347121 7.550006 -62.507487 0.947729 -25.011994 -10.110575 0.000000 0.000000 0.000000 3.787920 -0.752745 3.171690 2.183983 3.921651 17.224055 -0.135559 -4.535544 55.665734 0.780678 28.624298 5.619923 0.000000 0.000000 0.000000 
-0.223883 93.179634 1.593959 0.000000 0.000000 0.000000 8.005759 -6.498610 -0.648739 -30.997297 9.762967 15.702033 38.556452 5.781678 -1.984341 -10.039041 6.736295 -4.526043 0.000000 0.000000 0.000000 8.538415 7.606290 9.619763 -16.661125 -5.267222 -2.801121 26.076501 -3.081644 -4.603888 -21.152816 -4.843300 1.207261 0.000000 0.000000 0.000000 0.329212 -0.000539 -0.562234 1.645712 9.059535 -6.399130 5.386485 -1.061761 4.879457 0.786003 -0.162117 3.358506 0.000000 0.000000 0.000000 2.282233 0.229065 2.741116 -0.490320 -0.158842 1.056258 0.000000 0.000000 0.000000 3.609466 -0.601412 2.723806 2.656235 -10.124190 1.735010 -1.583508 8.180110 -62.617521 0.717104 -24.919704 -10.405070 0.000000 0.000000 0.000000 3.823037 -0.723266 3.194832 2.277246 3.826223 17.262115 -0.134905 -4.682197 55.776961 0.745817 28.382033 5.671314 0.000000 0.000000 0.000000 
